<?xml version="1.0" encoding="utf-8"?>
<!-- Generator: Adobe Illustrator 15.0.0, SVG Export Plug-In . SVG Version: 6.00 Build 0)  -->
<!DOCTYPE svg PUBLIC "-//W3C//DTD SVG 1.1//EN" "http://www.w3.org/Graphics/SVG/1.1/DTD/svg11.dtd">
<svg version="1.1" id="Layer_1" xmlns="http://www.w3.org/2000/svg" xmlns:xlink="http://www.w3.org/1999/xlink" x="0px" y="0px"
	 width="381px" height="342px" viewBox="0 0 381 342" enable-background="new 0 0 381 342" xml:space="preserve">
<g>
	<defs>
		<rect id="SVGID_1_" x="0.06" y="0.905" width="380.94" height="341"/>
	</defs>
	<clipPath id="SVGID_2_">
		<use xlink:href="#SVGID_1_"  overflow="visible"/>
	</clipPath>
	<g clip-path="url(#SVGID_2_)">
		<defs>
			<rect id="SVGID_3_" width="381" height="342"/>
		</defs>
		<clipPath id="SVGID_4_">
			<use xlink:href="#SVGID_3_"  overflow="visible"/>
		</clipPath>
		<path clip-path="url(#SVGID_4_)" d="M308.348,173.217c-1.223,0.508-2.324,1.271-3.238,2.231l-34.727,36.687v-21.558
			c0-5.032-3.941-9.18-8.965-9.435c-22.387-1.133-42.59-8.901-58.062-20.973c4.391-6.136,5.137-18.847,4.82-24.14
			c-0.32-5.434-1.676-4.91-4.266-6.074c-0.164-0.075-0.34-0.141-0.516-0.192h-0.008l0.008-24.953
			c-0.016-12.695-3.094-21.238-9.422-26.109c-2.801-2.157-6.016-4.172-9.125-6.125c-1.707-1.071-3.434-2.157-5-3.211
			c14.32-29.094,48.039-49.574,87.257-49.574c52.156,0,94.594,36.226,94.594,80.75C361.699,131.241,340.758,159.768,308.348,173.217
			z M267.105,0.905c-46.23,0-86.085,24.398-103.753,59.301c-3.446-0.497-6.821-0.594-8.922-0.594
			c-7.633,0-27.532,1.336-47.414,13.722C96.102,80.135,91,89.799,90.477,104.674c-0.004,0.043-0.004,0.086-0.004,0.133h0.039
			l-0.024,24.957H90.48c-0.175,0.051-0.351,0.117-0.515,0.192c-2.59,1.164-3.945,0.64-4.266,6.074
			c-0.367,6.195,0.711,22.554,7.391,26.637c1,1.023,1.66,3.828,2.055,6.949c0.738,5.836,1.578,12.453,4.871,16.785
			c7.496,9.858,5.527,25.121,5.359,26.308c-0.023,0.016-0.063,0.04-0.109,0.063c-4.621,2.073-5.832,6.112-6.719,9.065l-0.457,1.469
			c-1.195,3.853-2.324,7.496-3.883,10.953c-0.211,0.301-1.113,1.017-2.281,1.457l-3.418,1.31
			c-21.578,8.272-43.895,16.827-64.617,28.284C4.301,276.139,0.18,334.784,0.016,336.647c-0.102,1.116,0.277,2.227,1.031,3.055
			c0.758,0.828,1.828,1.297,2.953,1.297h285.875c1.125,0,2.195-0.469,2.953-1.297c0.754-0.828,1.133-1.938,1.031-3.055
			c-0.164-1.863-4.285-60.509-23.875-71.337c-20.723-11.457-43.039-20.012-64.617-28.284l-3.418-1.31
			c-1.168-0.44-2.07-1.156-2.281-1.457c-1.559-3.457-2.688-7.101-3.883-10.953l-0.457-1.469c-0.883-2.953-2.098-6.992-6.719-9.065
			c-0.047-0.023-0.082-0.048-0.109-0.063c-0.168-1.183-2.137-16.449,5.359-26.308c1.57-2.063,2.579-4.649,3.285-7.418
			c15.383,10.598,33.973,17.801,54.352,20.258v36.604c0,3.867,2.359,7.345,5.949,8.778c1.137,0.449,2.32,0.668,3.492,0.668
			c2.547,0,5.043-1.032,6.863-2.954l49.672-52.476c18.215-7.922,33.668-19.985,44.793-34.985
			c11.984-16.16,18.316-34.949,18.316-54.335C380.582,45.604,329.676,0.905,267.105,0.905z"/>
	</g>
</g>
<g>
	<defs>
		<rect id="SVGID_5_" width="381" height="342"/>
	</defs>
	<clipPath id="SVGID_6_">
		<use xlink:href="#SVGID_5_"  overflow="visible"/>
	</clipPath>
	<path clip-path="url(#SVGID_6_)" d="M240.734,99.28c0,6.578-5.332,11.91-11.906,11.91c-6.578,0-11.91-5.332-11.91-11.91
		c0-6.574,5.332-11.906,11.91-11.906C235.402,87.374,240.734,92.706,240.734,99.28z"/>
	<path clip-path="url(#SVGID_6_)" d="M279.012,99.28c0,6.578-5.332,11.91-11.91,11.91c-6.574,0-11.906-5.332-11.906-11.91
		c0-6.574,5.332-11.906,11.906-11.906C273.68,87.374,279.012,92.706,279.012,99.28z"/>
	<path clip-path="url(#SVGID_6_)" d="M317.289,99.28c0,6.578-5.332,11.91-11.91,11.91c-6.574,0-11.906-5.332-11.906-11.91
		c0-6.574,5.332-11.906,11.906-11.906C311.957,87.374,317.289,92.706,317.289,99.28z"/>
</g>
</svg>
